<svg xmlns="http://www.w3.org/2000/svg" width="33.365" height="20.424" viewBox="0 0 33.365 20.424">
  <defs>
    <style>
      .cls-1 {
        fill: #fff;
      }
    </style>
  </defs>
  <path id="路径_2851" data-name="路径 2851" class="cls-1" d="M30.481,203.776H12.708s-2.98,0-2.98,2.893v14.638c0,2.893,2.98,2.893,2.98,2.893H30.5s2.98,0,2.98-2.893V206.756A2.938,2.938,0,0,0,30.481,203.776Zm12.178,1.49a.654.654,0,0,0-.693.087l-5.873,4.556a.749.749,0,0,0-.26.52V217.7a.617.617,0,0,0,.26.52l5.873,4.556a.662.662,0,0,0,.433.173.655.655,0,0,0,.346-.087.58.58,0,0,0,.346-.606v-16.37A.614.614,0,0,0,42.659,205.266Z" transform="translate(-9.728 -203.776)"/>
</svg>
